<?xml version="1.0" encoding="UTF-8"?><svg id="b" xmlns="http://www.w3.org/2000/svg" viewBox="0 0 49.64 67.68"><defs><style>.d{fill:#3e2500;}</style></defs><g id="c"><path class="d" d="m17.02,67.68c0-8.32,3.62-13.94,7.48-17.93,3.39-3.5,7.32-8.31,7.32-15.63,0-8.67-3.5-12.14-7.32-16.27C21.03,14.09,17.02,8.14,17.02,0H0v67.68h17.02Z"/><path class="d" d="m36.35,67.68c0-8.32,3.29-11.27,6.79-15.26,3.08-3.5,6.49-9.59,6.49-18.3,0-9.14-3.03-15.11-6.49-19.24-3.16-3.76-6.79-6.75-6.79-14.88h-11.38c0,8.14,4,12.03,7.48,15.79,3.82,4.13,7.32,9.67,7.32,18.33,0,8.18-3.93,14.05-7.32,17.55-3.86,3.99-7.48,7.68-7.48,16h11.38Z"/></g></svg>