<?xml version="1.0" encoding="UTF-8"?><svg id="b" xmlns="http://www.w3.org/2000/svg" viewBox="0 0 157.12 11.26"><defs><style>.d{fill:#231815;}</style></defs><g id="c"><path class="d" d="m7.47,10.28l-.47.37c-1.31-1.91-3.35-3.98-5.22-5.35l.41-.34c.97.68,1.85,1.49,2.7,2.31,1.82-1.07,3.91-2.96,4.71-4.95H0v-.54h10.51c-.97,2.6-2.93,4.44-5.24,5.88.79.84,1.54,1.68,2.21,2.61Z"/><path class="d" d="m11.49,7.72l-.56.14c-.13-.86-.39-1.58-.79-2.36l.51-.15c.38.75.65,1.55.83,2.37Zm3.29,1.57c-.96,1.03-2.1,1.56-3.6,1.89l-.21-.49c1.33-.26,2.64-.77,3.54-1.83.83-.98,1.27-2.47,1.43-3.72l.56.11c-.24,1.35-.74,2.99-1.72,4.05Zm-1.13-2.01l-.56.12c-.12-.79-.34-1.56-.63-2.3l.49-.12c.26.61.58,1.64.7,2.3Z"/><path class="d" d="m26.72,2.23c-.41,2.19-1.32,4.15-2.82,5.8-1.54,1.69-3.38,2.39-5.54,2.9l-.26-.55c2.14-.43,3.95-1.16,5.43-2.82,1.25-1.39,2.04-3,2.45-4.81h-5.12c-.86,1.18-1.79,2.18-3,3l-.38-.46c1.76-1.2,3.23-2.87,3.97-4.89l.68.1c-.24.61-.56,1.18-.91,1.73h5.5Z"/><path class="d" d="m27.52,10.82l-.36-.43c.74-.34,1.34-.65,2.02-1.1,1.15-.8,2.23-1.75,3.13-2.83,1.14-1.38,2.12-2.89,2.57-4.68h-7.17v-.53h7.92c-.41,1.89-1.28,3.59-2.48,5.1.67.58,1.75,1.45,2.36,2.01.7.64,1.36,1.32,2.02,1.98l-.48.46c-1.06-1.2-2.97-3.08-4.21-4.07-1.5,1.71-3.24,3.11-5.3,4.09Z"/><path class="d" d="m47.23,1.6v8.42h-9.13v-.54h8.5V2.12h-8.4v-.53h9.02Z"/><path class="d" d="m56.98,5.5v.6h-8.52v-.6h8.52Z"/><path class="d" d="m58.55.95v4.17c2.51-.53,4.82-1.28,7.08-2.51l.41.46c-2.28,1.24-4.96,2.03-7.48,2.58v3.31c0,.36.02.67.36.9.32.23,1.13.24,1.64.24h3.02c.88,0,2.18-.02,3.03-.18l.04.54c-1.06.14-2.35.14-3.43.14h-2.61c-.6,0-1.62-.01-2.05-.3-.56-.38-.58-.95-.58-1.57V.95h.58Z"/><path class="d" d="m74.55,5.5v.6h-8.52v-.6h8.52Z"/><path class="d" d="m79.68,10.48c.81-.08,1.58-.21,2.31-.58,1.08-.54,1.54-1.74,1.54-2.88,0-.94-.32-1.87-1.01-2.52-.63-.6-1.52-.79-2.37-.79-.08.9-.17,1.8-.35,2.7-.15.83-.53,1.97-.98,2.69-.33.52-.88,1.16-1.56,1.16-.37,0-.75-.22-1-.49-.51-.54-.7-1.58-.7-2.29,0-1.43.66-2.77,1.87-3.56.8-.52,1.76-.73,2.71-.73,1.61,0,3.04.62,3.68,2.2.22.52.3,1.07.3,1.63,0,1.44-.59,2.76-1.93,3.43-.76.37-1.52.52-2.35.59l-.17-.56Zm-3.53-2.92c0,.66.24,2.09,1.11,2.09.49,0,.85-.48,1.08-.86.88-1.41,1.11-3.43,1.22-5.06-2.11.23-3.42,1.7-3.42,3.83Z"/><path class="d" d="m87.34,7.09c-.48,1.39-1.07,2.51-2.13,3.53l-.44-.31c1.31-1.28,2.02-2.87,2.41-4.63.32-1.46.46-3.07.52-4.57l.61.05c-.11,1.94-.32,4.09-.96,5.94Zm5.18-6.04c.23,3.57.65,6.43,3.11,9.22l-.52.36c-2.54-3.11-2.89-5.64-3.19-9.5l.6-.08Zm3.33.49c0,.7-.56,1.26-1.26,1.26s-1.25-.56-1.25-1.26.55-1.25,1.25-1.25,1.26.56,1.26,1.25Zm-2.01,0c0,.42.34.77.76.77s.76-.35.76-.77-.34-.76-.76-.76-.76.34-.76.76Z"/><path class="d" d="m97.04,7.72l-.56.14c-.13-.86-.39-1.58-.79-2.36l.51-.15c.38.75.65,1.55.83,2.37Zm3.29,1.57c-.96,1.03-2.1,1.56-3.6,1.89l-.21-.49c1.33-.26,2.64-.77,3.54-1.83.83-.98,1.27-2.47,1.43-3.72l.56.11c-.24,1.35-.74,2.99-1.72,4.05Zm-1.13-2.01l-.56.12c-.12-.79-.34-1.56-.63-2.3l.49-.12c.26.61.58,1.64.7,2.3Z"/><path class="d" d="m113.34,2.87v.54h-3.12c-.13,1.61-.43,3.25-1.28,4.65-1.04,1.73-2.65,2.51-4.58,2.85l-.26-.54c1.83-.26,3.32-.98,4.32-2.6.8-1.32,1.07-2.84,1.19-4.37h-3.99c-.49,1.16-1.25,2.25-2.34,2.91l-.44-.41c.91-.55,1.52-1.22,2-2.17.54-1.06.85-2.1,1.04-3.27l.61.08c-.17.79-.38,1.56-.67,2.31h7.53Z"/><path class="d" d="m121.98,5.5v.6h-8.52v-.6h8.52Z"/><path class="d" d="m126.67,5.39l-.3.53c-1.2-.68-2.17-1.06-3.49-1.45l.25-.5c1.09.28,2.58.85,3.54,1.43Zm-3.29,4.74c2.12-.24,4.33-.72,5.96-2.19,1.5-1.36,2.44-2.99,2.96-4.93l.56.3c-.59,1.98-1.55,3.74-3.13,5.11-1.69,1.45-3.99,2.02-6.16,2.33l-.19-.61Zm4.23-7.69l-.29.58c-1.19-.73-2.17-1.06-3.49-1.46l.23-.48c1.32.32,2.36.72,3.55,1.37Zm4.34-.2l-.47.3c-.37-.6-.73-1.1-1.21-1.61l.47-.29c.49.48.88,1,1.21,1.6Zm1.24-.72l-.49.31c-.36-.62-.64-1.01-1.14-1.52l.47-.3c.49.47.84.92,1.16,1.51Z"/><path class="d" d="m139.5,1.25v.4h-2.16c-.12.49-.24.89-.43,1.34h2.78v.41h-2.97c-.25.53-.55,1.02-.9,1.49h1.44c.23-.31.44-.71.61-1.06l.46.13c-.11.26-.34.7-.5.92h1.68v.41h-1.91v1.33h1.6v.4h-1.6v1.28h1.6v.41h-1.6v1.37h1.81v.41h-3.8v.78h-.49v-5.54c-.3.31-.56.53-.91.78l-.3-.46c1.01-.7,1.71-1.58,2.29-2.65h-2.04v-.41h2.24c.22-.47.34-.84.43-1.34h-.98c-.26.41-.49.72-.84,1.08l-.43-.31c.61-.54,1.18-1.43,1.49-2.18l.42.25c-.11.28-.24.52-.38.77h3.41Zm-3.9,4.04v1.33h1.55v-1.33h-1.55Zm0,1.73v1.28h1.55v-1.28h-1.55Zm0,1.69v1.37h1.55v-1.37h-1.55Zm8.97-1.45h-1.44v3.12c0,.3.08.34.36.34h.46c.26,0,.4-.05.47-.37.05-.26.07-.71.1-1.48l.5.17c-.04.46-.06,1.45-.24,1.83-.14.3-.46.31-.73.31h-.65c-.66,0-.76-.2-.76-.82v-3.11h-1.03c-.1,1.72-.5,3-2,3.98l-.38-.36c1.43-.84,1.81-2.05,1.9-3.62h-1.01V.66h4.46v6.6Zm-3.97-6.16v1.62h3.47v-1.62h-3.47Zm0,2.05v1.63h3.47v-1.63h-3.47Zm0,2.08v1.61h3.47v-1.61h-3.47Z"/><path class="d" d="m146.84,4.75c-.14.08-.3.16-.46.23l-.28-.36c1.28-.54,2.22-1.39,3.01-2.53l.36.25c-.14.22-.3.42-.47.61h2.39v.48c-.91,1.71-3.29,3.18-5.1,3.75l-.24-.46c.74-.19,1.28-.41,1.97-.77-.3-.36-.83-.91-1.19-1.21Zm-.3,5.97l-.36-.34c1.02-.47,2.19-1.2,2.97-2.03l.38.28c-.65.73-2.11,1.68-3,2.09Zm5.33-10.39v.88h4.85v2.05h-.52v-1.61h-9.21v1.61h-.54V1.21h4.89V.34h.53Zm0,7.42v2.83c0,.5-.29.66-.76.66h-1.44l-.13-.53,1.43.02c.28,0,.36-.04.36-.28v-2.71h-4.74v-.44h10.03v.44h-4.75Zm-2.61-2.59c-.38-.43-.82-.85-1.28-1.2-.24.19-.48.38-.74.54.35.29.95.86,1.25,1.2.28-.17.54-.35.78-.54Zm1.62-1.8h-2.24c-.11.11-.22.2-.32.31.43.32.94.79,1.31,1.19.54-.48.92-.84,1.26-1.5Zm-1.37,2.77v-.43h4.35v.43h-4.35Zm7.62.64l-.25.49c-2.31-1.07-4.39-2.43-5.28-4.94l.38-.18c.41,1.07.98,1.87,1.82,2.65.52-.46.86-.82,1.24-1.4h-2.18v-.43h2.79v.43c-.41.67-.92,1.18-1.52,1.68.91.73,1.92,1.27,3,1.7Zm-3.36,1.98l.31-.36c.85.79,1.82,1.48,2.89,1.94l-.3.44c-1.02-.48-2.09-1.26-2.9-2.03Z"/></g></svg>