<?xml version="1.0" encoding="utf-8"?>
<!-- Generator: Adobe Illustrator 27.5.0, SVG Export Plug-In . SVG Version: 6.00 Build 0)  -->
<svg version="1.1" id="b" xmlns="http://www.w3.org/2000/svg" xmlns:xlink="http://www.w3.org/1999/xlink" x="0px" y="0px"
	 viewBox="0 0 84.1 27" style="enable-background:new 0 0 84.1 27;" xml:space="preserve">
<style type="text/css">
	.st0{fill:#FFFFFF;}
</style>
<path class="st0" d="M7.5,9.9L7,10.2c-1.3-1.9-3.3-4-5.2-5.3l0.4-0.3C3.2,5.2,4,6,4.9,6.9c1.8-1.1,3.9-3,4.7-4.9H0V1.4h10.5
	C9.5,4,7.6,5.8,5.3,7.3C6.1,8.1,6.8,8.9,7.5,9.9L7.5,9.9z"/>
<path class="st0" d="M11.5,7.3l-0.6,0.1c-0.1-0.9-0.4-1.6-0.8-2.4l0.5-0.2C11,5.7,11.3,6.5,11.5,7.3L11.5,7.3z M14.8,8.9
	c-1,1-2.1,1.6-3.6,1.9L11,10.3c1.3-0.3,2.6-0.8,3.5-1.8c0.8-1,1.3-2.5,1.4-3.7l0.6,0.1C16.3,6.2,15.8,7.8,14.8,8.9L14.8,8.9z
	 M13.6,6.9L13.1,7c-0.1-0.8-0.3-1.6-0.6-2.3l0.5-0.1C13.2,5.2,13.5,6.2,13.6,6.9z"/>
<path class="st0" d="M26.7,1.8C26.3,4,25.4,6,23.9,7.6c-1.5,1.7-3.4,2.4-5.5,2.9L18.1,10c2.1-0.4,4-1.2,5.4-2.8c1.2-1.4,2-3,2.5-4.8
	h-5.1c-0.9,1.2-1.8,2.2-3,3l-0.4-0.5c1.8-1.2,3.2-2.9,4-4.9l0.7,0.1c-0.2,0.6-0.6,1.2-0.9,1.7C21.2,1.8,26.7,1.8,26.7,1.8z"/>
<path class="st0" d="M27.5,10.4L27.2,10c0.7-0.3,1.3-0.6,2-1.1c1.1-0.8,2.2-1.8,3.1-2.8c1.1-1.4,2.1-2.9,2.6-4.7h-7.2V0.8h7.9
	c-0.4,1.9-1.3,3.6-2.5,5.1c0.7,0.6,1.8,1.4,2.4,2c0.7,0.6,1.4,1.3,2,2l-0.5,0.5c-1.1-1.2-3-3.1-4.2-4.1C31.3,8,29.6,9.4,27.5,10.4
	L27.5,10.4z"/>
<path class="st0" d="M47.2,1.2v8.4h-9.1V9.1h8.5V1.7h-8.4V1.2L47.2,1.2L47.2,1.2z"/>
<path class="st0" d="M57,5.1v0.6h-8.5V5.1H57z"/>
<path class="st0" d="M58.5,0.5v4.2c2.5-0.5,4.8-1.3,7.1-2.5L66,2.7c-2.3,1.2-5,2-7.5,2.6v3.3c0,0.4,0,0.7,0.4,0.9
	c0.3,0.2,1.1,0.2,1.6,0.2h3c0.9,0,2.2,0,3-0.2l0,0.5c-1.1,0.1-2.3,0.1-3.4,0.1h-2.6c-0.6,0-1.6,0-2-0.3C58,9.5,58,8.9,58,8.3V0.5
	H58.5L58.5,0.5z"/>
<path class="st0" d="M74.6,5.1v0.6H66V5.1H74.6z"/>
<path class="st0" d="M79.7,10.1c0.8-0.1,1.6-0.2,2.3-0.6c1.1-0.5,1.5-1.7,1.5-2.9c0-0.9-0.3-1.9-1-2.5c-0.6-0.6-1.5-0.8-2.4-0.8
	C80.1,4.2,80,5.1,79.8,6c-0.2,0.8-0.5,2-1,2.7c-0.3,0.5-0.9,1.2-1.6,1.2c-0.4,0-0.8-0.2-1-0.5c-0.5-0.5-0.7-1.6-0.7-2.3
	c0-1.4,0.7-2.8,1.9-3.6c0.8-0.5,1.8-0.7,2.7-0.7c1.6,0,3,0.6,3.7,2.2c0.2,0.5,0.3,1.1,0.3,1.6c0,1.4-0.6,2.8-1.9,3.4
	c-0.8,0.4-1.5,0.5-2.3,0.6L79.7,10.1L79.7,10.1z M76.2,7.2c0,0.7,0.2,2.1,1.1,2.1c0.5,0,0.8-0.5,1.1-0.9C79.2,7,79.5,5,79.6,3.3
	C77.5,3.6,76.1,5,76.2,7.2L76.2,7.2z"/>
<path class="st0" d="M3,22.2c-0.6,1.6-1.2,2.9-2.5,4.1L0,25.9c1.5-1.5,2.3-3.3,2.8-5.4c0.4-1.7,0.5-3.6,0.6-5.3l0.7,0.1
	C4,17.5,3.7,20,3,22.2L3,22.2z M9,15.1c0.3,4.2,0.8,7.5,3.6,10.7L12,26.3c-3-3.6-3.4-6.6-3.7-11C8.3,15.2,9,15.1,9,15.1z M12.9,15.7
	c0,0.8-0.7,1.5-1.5,1.5c-0.8,0-1.5-0.7-1.5-1.5s0.6-1.5,1.5-1.5C12.2,14.2,12.9,14.9,12.9,15.7z M10.5,15.7c0,0.5,0.4,0.9,0.9,0.9
	s0.9-0.4,0.9-0.9c0-0.5-0.4-0.9-0.9-0.9S10.5,15.2,10.5,15.7z"/>
<path class="st0" d="M14.3,22.9L13.6,23c-0.2-1-0.5-1.8-0.9-2.7l0.6-0.2C13.7,21,14,21.9,14.3,22.9L14.3,22.9z M18.1,24.7
	c-1.1,1.2-2.4,1.8-4.2,2.2l-0.2-0.6c1.5-0.3,3.1-0.9,4.1-2.1c1-1.1,1.5-2.9,1.7-4.3l0.7,0.1C19.8,21.6,19.2,23.5,18.1,24.7
	L18.1,24.7z M16.8,22.4l-0.7,0.1c-0.1-0.9-0.4-1.8-0.7-2.7l0.6-0.1C16.3,20.4,16.6,21.6,16.8,22.4z"/>
<path class="st0" d="M33.2,17.2v0.6h-3.6c-0.2,1.9-0.5,3.8-1.5,5.4c-1.2,2-3.1,2.9-5.3,3.3L22.5,26c2.1-0.3,3.9-1.1,5-3
	c0.9-1.5,1.2-3.3,1.4-5.1h-4.6c-0.6,1.3-1.5,2.6-2.7,3.4L21,20.8c1.1-0.6,1.8-1.4,2.3-2.5c0.6-1.2,1-2.4,1.2-3.8l0.7,0.1
	c-0.2,0.9-0.4,1.8-0.8,2.7L33.2,17.2L33.2,17.2z"/>
<path class="st0" d="M43.3,20.3V21h-9.9v-0.7C33.4,20.3,43.3,20.3,43.3,20.3z"/>
<path class="st0" d="M48.7,20.2l-0.3,0.6c-1.4-0.8-2.5-1.2-4.1-1.7l0.3-0.6C45.9,18.9,47.6,19.5,48.7,20.2L48.7,20.2z M44.9,25.7
	c2.5-0.3,5-0.8,6.9-2.5c1.7-1.6,2.8-3.5,3.4-5.7l0.7,0.3c-0.7,2.3-1.8,4.3-3.6,5.9c-2,1.7-4.6,2.3-7.2,2.7L44.9,25.7L44.9,25.7z
	 M49.8,16.7l-0.3,0.7c-1.4-0.8-2.5-1.2-4.1-1.7l0.3-0.6C47.2,15.5,48.4,16,49.8,16.7L49.8,16.7z M54.8,16.5l-0.5,0.3
	c-0.4-0.7-0.8-1.3-1.4-1.9l0.5-0.3C54,15.2,54.5,15.8,54.8,16.5z M56.3,15.7L55.7,16c-0.4-0.7-0.7-1.2-1.3-1.8l0.5-0.3
	C55.5,14.5,55.9,15,56.3,15.7z"/>
<path class="st0" d="M63.6,15.4v0.5h-2.5c-0.1,0.6-0.3,1-0.5,1.6h3.2v0.5h-3.5c-0.3,0.6-0.6,1.2-1,1.7H61c0.3-0.4,0.5-0.8,0.7-1.2
	l0.5,0.2c-0.1,0.3-0.4,0.8-0.6,1.1h2v0.5h-2.2v1.5h1.9v0.5h-1.9v1.5h1.9V24h-1.9v1.6h2.1v0.5h-4.4V27h-0.6v-6.4
	c-0.3,0.4-0.7,0.6-1.1,0.9l-0.3-0.5c1.2-0.8,2-1.8,2.7-3.1h-2.4v-0.5H60c0.3-0.5,0.4-1,0.5-1.6h-1.1c-0.3,0.5-0.6,0.8-1,1.3
	l-0.5-0.4c0.7-0.6,1.4-1.7,1.7-2.5l0.5,0.3c-0.1,0.3-0.3,0.6-0.4,0.9L63.6,15.4L63.6,15.4z M59.1,20.1v1.5h1.8v-1.5H59.1z
	 M59.1,22.1v1.5h1.8v-1.5C60.9,22.1,59.1,22.1,59.1,22.1z M59.1,24v1.6h1.8V24H59.1z M69.5,22.3h-1.7V26c0,0.3,0.1,0.4,0.4,0.4h0.5
	c0.3,0,0.5-0.1,0.5-0.4c0.1-0.3,0.1-0.8,0.1-1.7l0.6,0.2c0,0.5-0.1,1.7-0.3,2.1c-0.2,0.3-0.5,0.4-0.8,0.4h-0.8c-0.8,0-0.9-0.2-0.9-1
	v-3.6h-1.2c-0.1,2-0.6,3.5-2.3,4.6l-0.4-0.4c1.7-1,2.1-2.4,2.2-4.2h-1.2v-7.7h5.2L69.5,22.3L69.5,22.3z M64.9,15.2v1.9h4v-1.9
	C68.9,15.2,64.9,15.2,64.9,15.2z M64.9,17.6v1.9h4v-1.9C68.9,17.6,64.9,17.6,64.9,17.6z M64.9,20v1.9h4V20H64.9z"/>
<path class="st0" d="M72.2,19.4c-0.2,0.1-0.3,0.2-0.5,0.3l-0.3-0.4c1.5-0.6,2.6-1.6,3.5-2.9l0.4,0.3c-0.2,0.3-0.3,0.5-0.5,0.7h2.8
	v0.6c-1.1,2-3.8,3.7-5.9,4.4l-0.3-0.5c0.9-0.2,1.5-0.5,2.3-0.9C73.2,20.4,72.6,19.8,72.2,19.4L72.2,19.4z M71.8,26.4L71.4,26
	c1.2-0.5,2.5-1.4,3.5-2.4l0.4,0.3C74.5,24.8,72.8,25.9,71.8,26.4L71.8,26.4z M78,14.3v1h5.6v2.4H83v-1.9H72.3v1.9h-0.6v-2.4h5.7v-1
	L78,14.3L78,14.3z M78,22.9v3.3c0,0.6-0.3,0.8-0.9,0.8h-1.7l-0.2-0.6l1.7,0c0.3,0,0.4,0,0.4-0.3v-3.2h-5.5v-0.5h11.7v0.5L78,22.9
	L78,22.9z M75,19.9c-0.4-0.5-1-1-1.5-1.4c-0.3,0.2-0.6,0.4-0.9,0.6c0.4,0.3,1.1,1,1.5,1.4C74.4,20.3,74.7,20.1,75,19.9L75,19.9z
	 M76.9,17.8h-2.6c-0.1,0.1-0.3,0.2-0.4,0.4c0.5,0.4,1.1,0.9,1.5,1.4C76,19,76.5,18.6,76.9,17.8L76.9,17.8z M75.3,21v-0.5h5.1V21
	H75.3z M84.1,21.8l-0.3,0.6c-2.7-1.2-5.1-2.8-6.1-5.7l0.4-0.2c0.5,1.2,1.1,2.2,2.1,3.1c0.6-0.5,1-1,1.4-1.6h-2.5v-0.5h3.2v0.5
	c-0.5,0.8-1.1,1.4-1.8,2C81.7,20.7,82.9,21.3,84.1,21.8L84.1,21.8z M80.2,24.1l0.4-0.4c1,0.9,2.1,1.7,3.4,2.3l-0.3,0.5
	C82.4,25.9,81.2,25,80.2,24.1L80.2,24.1z"/>
</svg>
