<?xml version="1.0" encoding="UTF-8"?><svg id="_レイヤー_2" xmlns="http://www.w3.org/2000/svg" viewBox="0 0 33.47 9.52"><defs><style>.cls-1{fill:#333;}</style></defs><g id="_レイヤー_1-2"><g><path class="cls-1" d="m6.48,9.05c-.55.25-1.19.38-1.91.38-.66,0-1.26-.11-1.82-.32-.56-.22-1.04-.52-1.45-.92-.41-.4-.73-.87-.96-1.42-.23-.55-.35-1.16-.35-1.82s.12-1.3.35-1.85c.24-.55.56-1.02.98-1.41.42-.39.9-.69,1.46-.89s1.16-.31,1.81-.31c.6,0,1.19.11,1.77.32s1.05.52,1.41.93l-1.39,1.39c-.19-.26-.44-.46-.76-.59s-.63-.19-.96-.19c-.36,0-.69.07-.99.2-.3.13-.56.31-.77.55-.22.23-.38.51-.5.82s-.18.66-.18,1.04.06.74.18,1.06c.12.32.29.59.5.82.21.23.47.41.76.53.3.13.62.19.97.19.41,0,.76-.08,1.07-.24s.55-.37.73-.62l1.43,1.34c-.38.43-.84.77-1.39,1.03Z"/><path class="cls-1" d="m8.66,9.2V.13h2v9.07h-2Z"/><path class="cls-1" d="m14.35,1.32c0,.15-.03.29-.09.43s-.14.25-.24.34c-.1.1-.22.17-.36.23-.14.06-.29.08-.44.08-.32,0-.59-.11-.8-.32-.22-.21-.32-.47-.32-.76,0-.14.03-.28.08-.41.06-.13.14-.25.24-.34.1-.1.22-.17.36-.23.14-.06.28-.09.44-.09.15,0,.3.03.44.08s.26.13.36.23c.1.1.18.21.24.34s.09.27.09.43Zm-2.11,7.88V3.23h1.97v5.98h-1.97Z"/><path class="cls-1" d="m19.9,5.16c-.11-.14-.26-.26-.46-.35-.19-.09-.39-.13-.59-.13s-.4.04-.56.13-.31.2-.43.34c-.12.14-.21.3-.28.49-.07.18-.1.38-.1.59s.03.4.1.59.16.35.28.49c.12.14.27.25.44.33s.37.12.58.12c.2,0,.4-.04.59-.11.2-.08.35-.19.47-.33l1.09,1.33c-.25.24-.57.43-.96.56-.39.14-.81.2-1.25.2-.47,0-.91-.07-1.32-.22-.41-.14-.76-.35-1.07-.63-.3-.28-.54-.61-.71-1-.17-.39-.26-.84-.26-1.33s.09-.93.26-1.32c.17-.39.41-.73.71-1,.3-.28.66-.49,1.07-.64.41-.15.85-.22,1.31-.22.22,0,.43.02.64.06s.42.09.61.16c.2.07.38.15.54.25s.31.21.43.33l-1.14,1.32Z"/><path class="cls-1" d="m28.22,9.2h-2.44l-1.96-2.87h-.04v2.87h-1.98V.13h1.98v5.52h.04l1.91-2.42h2.39l-2.3,2.7,2.4,3.28Z"/><path class="cls-1" d="m30.54,9.52c-.24,0-.45-.04-.64-.11-.19-.07-.35-.17-.48-.3-.13-.12-.23-.27-.3-.43s-.11-.33-.11-.51c0-.24.04-.46.13-.68.08-.22.2-.4.36-.57.15-.16.34-.29.55-.38.22-.09.46-.14.72-.14.23,0,.44.04.62.11.19.08.34.17.48.3.13.12.24.27.31.43.07.16.11.33.11.51,0,.25-.04.48-.12.69-.08.22-.2.4-.36.56-.15.16-.34.28-.55.38-.22.09-.45.14-.71.14Zm-1.2-3.58l1.06-5.94h3.08l-1.06,5.94h-3.08Z"/></g></g></svg>