<?xml version="1.0" encoding="UTF-8"?><svg id="b" xmlns="http://www.w3.org/2000/svg" viewBox="0 0 117.4 11.38"><defs><style>.d{fill:#333;}</style></defs><g id="c"><path class="d" d="m6.21,7.64l.65.36-2.04,2.88C.46,9.59,0,5.36,0,3.96c0-.91.14-1.61.25-2.09l.74.13c-.13.67-.24,1.26-.24,1.94,0,1.98.88,4.93,3.74,6.1l1.72-2.41Zm4.21-1.87l-.66.34L6.27.68l.66-.32,3.49,5.41Z"/><path class="d" d="m12.97,7.26l-.67-.23,1.75-4.09h-2.31v-.65h2.59L15.29.06l.67.24-.85,1.99h3.91v.65h-4.19l-1.86,4.32Zm8.77,1.2c-.44-.71-.88-1.14-1.5-1.55.13,3.12-1.54,3.97-2.91,3.97-1.48,0-2.66-.95-2.66-2.3s1.06-2.96,3.35-2.96c.64,0,1.06.11,1.34.19-.11-.54-.23-1.04-.59-2.03l.68-.19c.23.59.54,1.57.7,2.52.61.31,1.56.86,2.23,2.05l-.64.3Zm-3.72-2.21c-1.75,0-2.64,1.15-2.64,2.31,0,1.01.85,1.67,1.94,1.67,1.42,0,2.19-1.07,2.19-2.87,0-.37-.02-.64-.05-.84-.29-.11-.74-.28-1.45-.28Zm4.27-3.71l-.55.46-2.3-2.23.56-.46,2.29,2.23Z"/><path class="d" d="m25.16,9.09l1.18-.37.24.61-2.15.67V1.81h.73v7.28Zm9.28-.1c-1.44.78-2.45,1.04-3.47,1.04-2.07,0-3.18-1.22-3.62-1.86-.76-1.09-.8-1.96-.85-2.67h.74c.04.66.1,1.38.7,2.25,1.09,1.61,2.61,1.62,3.03,1.62.78,0,1.75-.19,3.07-.95l.4.56Zm-1.26-6.99h-6.63v-.66h6.63v.66Z"/><path class="d" d="m46.36,10.37c-.05-3.87-2.03-6.8-3.99-6.8-.53,0-1.32.23-2.06.85v6.32h-.72v-5.6c-.94,1.04-1.68,2.36-2.78,4.67l-.67-.24c.95-1.9,2.04-4.1,3.45-5.37v-.88h-3.02v-.65h3.02V.56h.72v3.07c.37-.24,1.12-.71,2.07-.71,2.48,0,4.71,3.33,4.7,7.46h-.72Z"/><path class="d" d="m54.02,11.2c.24-.83.65-2.23.65-3.78,0-1.65-.54-3.61-2.85-3.61-1.44,0-2.89.8-3.57,1.19l-.42-.56c.92-.5,2.36-1.31,4.01-1.31,2.3,0,3.6,1.62,3.6,4.26,0,1.67-.46,3.26-.67,3.99l-.73-.18Zm2.04-9.34l-.23.65-6.01-1.7.24-.65,6,1.7Z"/><path class="d" d="m60.59,5.66l-.74.14-1.39-5.66.74-.14,1.39,5.66Zm4.08-1.84c-3.98,1.76-4.04,4.17-4.04,4.5,0,.76.34,1.37,1.06,1.69.49.23.9.24,1.46.26v.67c-.76-.02-1.21-.05-1.81-.34-1-.47-1.48-1.3-1.48-2.29,0-.42.07-3.18,4.5-5.1l.31.6Zm.34-1.99h-.92v-.92h.92v.92Zm1.15,1.16h-.91v-.92h.91v.92Z"/><path class="d" d="m68.35,7.02c.18-.04.32-.07.59-.07,1.22,0,1.81.55,2.88,1.55.48.44.94.84,1.49.84,1.01,0,2.1-1.1,2.82-1.82l.59.43c-.79.79-2.05,2.08-3.39,2.08-.77,0-1.34-.4-1.97-.97-1.07-1.01-1.5-1.42-2.4-1.42-.42,0-.71.11-1.12.25l-1.57,2.67-.68-.31L71.39.42l.67.31-3.71,6.28Z"/><path class="d" d="m79.88,9.15v1.1h-1.01v-1.1h1.01Z"/><path class="d" d="m91.26,2.75h.72v2.39c.61.16,1.34.4,1.62.48l-.25.58c-.82-.26-.98-.31-1.37-.41v4.17h-.72v-4.35c-1.51-.32-2.47-.38-3.11-.43.1.65.19,1.23.19,2.05,0,2.57-1.55,3.6-2.94,3.6s-2.84-1.03-2.84-2.75c0-.29,0-2.3,2.38-3.15.98-.35,1.82-.37,2.4-.38-.16-.89-.3-1.43-.71-2.88h-3.84v-.62h4.38c.16.52.58,1.9.88,3.51,1.42.06,2.52.28,3.21.42v-2.22Zm-6.43,2.9c-1.52.7-1.57,2.21-1.57,2.45,0,1.32,1.09,2.1,2.15,2.1,1.42,0,2.24-1.3,2.24-2.89,0-.32-.04-1.12-.2-2.15-.43,0-1.55,0-2.61.49Z"/><path class="d" d="m97.26,7.02c.18-.04.32-.07.59-.07,1.22,0,1.81.55,2.88,1.55.48.44.94.84,1.49.84,1.01,0,2.1-1.1,2.82-1.82l.59.43c-.79.79-2.05,2.08-3.39,2.08-.77,0-1.34-.4-1.97-.97-1.07-1.01-1.5-1.42-2.4-1.42-.42,0-.71.11-1.12.25l-1.57,2.67-.68-.31L100.29.42l.67.31-3.71,6.28Z"/><path class="d" d="m108,7.26l-.67-.23,1.75-4.09h-2.31v-.65h2.59l.96-2.23.67.24-.85,1.99h3.91v.65h-4.19l-1.86,4.32Zm8.77,1.2c-.44-.71-.88-1.14-1.5-1.55.13,3.12-1.54,3.97-2.91,3.97-1.48,0-2.66-.95-2.66-2.3s1.06-2.96,3.35-2.96c.64,0,1.06.11,1.34.19-.11-.54-.23-1.04-.59-2.03l.68-.19c.23.59.54,1.57.7,2.52.61.31,1.56.86,2.23,2.05l-.64.3Zm-3.72-2.21c-1.75,0-2.64,1.15-2.64,2.31,0,1.01.85,1.67,1.94,1.67,1.42,0,2.19-1.07,2.19-2.87,0-.37-.02-.64-.05-.84-.29-.11-.74-.28-1.45-.28Zm4.27-3.71l-.55.46-2.3-2.23.56-.46,2.29,2.23Z"/></g></svg>